<svg fill="#1C2033" width="52" height="52" viewBox="0 0 64 64" xmlns="http://www.w3.org/2000/svg"><path d="M26.1 29.8004C27.8 29.1004 29.1 28.0004 29.9 26.7004C30.7 25.4004 31.2 23.7004 31.2 21.9004C31.2 20.2004 30.9 18.7004 30.4 17.4004C29.8 16.1004 29 15.1004 27.9 14.4004C26.8 13.7004 25.6 13.1004 24.1 12.8004C22.5 12.5004 20.9 12.4004 19.2 12.4004H1V50.4004H19.5C21.2 50.4004 22.9 50.3004 24.4 49.7004C26.1 49.3004 27.5 48.6004 28.8 47.7004C30.1 46.9004 31.1 45.7004 31.8 44.2004C32.5 42.8004 32.9 41.1004 32.9 39.1004C32.9 36.7004 32.3 34.6004 31.2 33.0004C30 31.6004 28.3 30.5004 26.1 29.8004ZM9.5 19.0004H17.4C18.1 19.0004 18.8 19.1004 19.5 19.1004C20.2 19.1004 20.9 19.5004 21.3 19.8004C21.9 20.1004 22.3 20.5004 22.6 21.2004C22.9 21.8004 23 22.5004 23 23.5004C23 25.0004 22.6 26.3004 21.6 27.0004C20.6 27.6004 19.3 28.0004 17.9 28.0004H9.5C9.5 27.8004 9.5 19.0004 9.5 19.0004ZM24.1 41.5004C23.8 42.2004 23.4 42.6004 22.7 43.0004C22.1 43.4004 21.4 43.7004 20.7 43.7004C20 43.8004 19.2 43.8004 18.4 43.8004H9.4V33.5004H18.6C20.4 33.5004 21.8 33.9004 23 34.8004C24.1 35.6004 24.7 37.1004 24.7 39.0004C24.5 40.0004 24.5 40.8004 24.1 41.5004Z"/><path d="M62.4 32.5002C62 30.5002 61.1 28.8002 60 27.3002C58.9 25.8002 57.5 24.6002 55.8 23.6002C54.1 22.8002 52 22.2002 49.7 22.2002C47.6 22.2002 45.6 22.6002 44.1 23.3002C42.4 24.0002 40.9 25.0002 39.6 26.4002C38.3 27.7002 37.3 29.2002 36.6 31.0002C35.9 32.7002 35.5 34.7002 35.5 36.8002C35.5 38.9002 35.8 40.9002 36.5 42.7002C37.2 44.5002 38.2 45.9002 39.3 47.3002C40.6 48.6002 42 49.6002 43.8 50.3002C45.5 51.0002 47.5 51.4002 49.7 51.4002C52.8 51.4002 55.5 50.7002 57.7 49.3002C60 47.9002 61.5 45.5002 62.6 42.1002H56C55.7 42.9002 55 43.8002 54 44.5002C53 45.2002 51.6 45.6002 50.1 45.6002C48 45.6002 46.3 45.0002 45.2 43.9002C44.1 42.8002 43.4 40.7002 43.4 38.5002H63C63 36.4002 62.9 34.3002 62.4 32.5002ZM43 33.8002C43 33.1002 43.3 32.4002 43.5 31.8002C43.8 31.1002 44.1 30.4002 44.6 29.9002C45.2 29.3002 46 28.7002 46.8 28.3002C47.6 27.9002 48.6 27.9002 49.5 27.9002C51.3 27.9002 52.9 28.5002 53.7 29.4002C54.5 30.4002 55.2 31.8002 55.4 33.8002H43Z"/><path d="M56.8984 15H41.3984V18.8H56.8984V15Z"/></svg>